<?xml version="1.0" encoding="UTF-8" standalone="no"?>
<!DOCTYPE svg PUBLIC "-//W3C//DTD SVG 1.1//EN" "http://www.w3.org/Graphics/SVG/1.1/DTD/svg11.dtd">
<svg width="100%" height="100%" viewBox="0 0 2420 264" version="1.1" xmlns="http://www.w3.org/2000/svg" xmlns:xlink="http://www.w3.org/1999/xlink" xml:space="preserve" xmlns:serif="http://www.serif.com/" style="fill-rule:evenodd;clip-rule:evenodd;stroke-linejoin:round;stroke-miterlimit:1.41421;">
    <g id="Layer-1" serif:id="Layer 1" transform="matrix(4.16667,0,0,4.16667,-440,-1143)">
        <g transform="matrix(1,0,0,1,105.732,337.542)">
            <path d="M0,-61.889L11.083,-61.889L11.083,-14.918C11.083,-12.191 11.681,-9.376 14.919,-9.376C17.991,-9.376 19.011,-12.02 19.011,-14.918L19.011,-61.889L28.389,-61.889L28.389,-16.368C28.389,-4.432 23.102,0 14.238,0C5.713,0 0,-4.432 0,-16.368L0,-61.889Z" style="fill:rgb(35,31,32);fill-rule:nonzero;"/>
        </g>
        <g transform="matrix(1,0,0,1,158.339,310.606)">
            <path d="M0,-9.209L2.215,-9.209C6.306,-9.209 7.84,-13.3 7.84,-17.648C7.84,-24.212 5.454,-26.086 1.705,-26.086L0,-26.086L0,-9.209ZM-11.083,-34.952L1.362,-34.952C11.936,-34.952 18.923,-30.52 18.923,-17.732C18.923,-12.619 17.389,-5.799 12.445,-2.9L19.011,25.743L7.84,25.743L2.641,-0.343L0,-0.343L0,25.743L-11.083,25.743L-11.083,-34.952Z" style="fill:rgb(35,31,32);fill-rule:nonzero;"/>
        </g>
        <g transform="matrix(1,0,0,1,199.437,284.519)">
            <path d="M0,42.963C6.649,42.963 7.673,40.32 7.673,34.012C7.673,28.472 6.306,25.317 0,25.402L0,42.963ZM0,16.025C5.542,16.025 6.987,13.467 6.987,8.011C6.987,1.108 5.542,-0.086 0,0L0,16.025ZM-11.083,-8.866L2.558,-8.866C9.378,-8.866 17.561,-5.115 17.561,6.478C17.561,13.298 14.493,18.582 7.673,20.032L7.673,20.202C15.258,21.992 18.751,27.277 18.751,34.95C18.751,46.033 11.25,51.829 3.067,51.829L-11.083,51.829L-11.083,-8.866Z" style="fill:rgb(35,31,32);fill-rule:nonzero;"/>
        </g>
        <g transform="matrix(1,0,0,1,241.981,326.972)">
            <path d="M0,-41.943L-0.171,-41.943L-3.665,-12.959L3.239,-12.959L0,-41.943ZM-7.075,-51.319L8.952,-51.319L16.453,9.376L5.796,9.376L4.179,-4.093L-4.772,-4.093L-6.306,9.376L-15.601,9.376L-7.075,-51.319Z" style="fill:rgb(35,31,32);fill-rule:nonzero;"/>
        </g>
        <g transform="matrix(1,0,0,1,268.497,336.348)">
            <path d="M0,-60.695L10.828,-60.695L20.971,-28.643L21.142,-28.643L21.142,-60.695L30.006,-60.695L30.006,0L21.397,0L9.549,-36.74L9.378,-36.74L9.378,0L0,0L0,-60.695Z" style="fill:rgb(35,31,32);fill-rule:nonzero;"/>
        </g>
        <g transform="matrix(1,0,0,1,345.059,299.606)">
            <path d="M0,12.788C0,25.916 1.534,28.56 4.091,28.56C6.649,28.56 8.183,25.916 8.183,12.788L8.183,0.002C8.183,-13.127 6.649,-15.77 4.091,-15.77C1.534,-15.77 0,-13.127 0,0.002L0,12.788ZM4.091,-25.148C13.896,-25.148 20.29,-17.561 20.29,6.394C20.29,30.349 13.896,37.936 4.091,37.936C-5.713,37.936 -12.107,30.349 -12.107,6.394C-12.107,-17.561 -5.713,-25.148 4.091,-25.148" style="fill:rgb(35,31,32);fill-rule:nonzero;"/>
        </g>
        <g transform="matrix(1,0,0,1,376.862,337.542)">
            <path d="M0,-61.889L11.083,-61.889L11.083,-14.918C11.083,-12.191 11.681,-9.376 14.919,-9.376C17.987,-9.376 19.011,-12.02 19.011,-14.918L19.011,-61.889L28.389,-61.889L28.389,-16.368C28.389,-4.432 23.102,0 14.238,0C5.713,0 0,-4.432 0,-16.368L0,-61.889Z" style="fill:rgb(35,31,32);fill-rule:nonzero;"/>
        </g>
        <g transform="matrix(1,0,0,1,423.497,326.972)">
            <path d="M0,-41.943L-9.545,-41.943L-9.545,-51.319L20.632,-51.319L20.632,-41.943L11.083,-41.943L11.083,9.376L0,9.376L0,-41.943Z" style="fill:rgb(35,31,32);fill-rule:nonzero;"/>
        </g>
        <g transform="matrix(1,0,0,1,453.256,336.348)">
            <path d="M0,-60.695L24.807,-60.695L24.807,-51.319L11.083,-51.319L11.083,-35.121L21.226,-35.121L21.226,-25.233L11.083,-25.233L11.083,0L0,0L0,-60.695Z" style="fill:rgb(35,31,32);fill-rule:nonzero;"/>
        </g>
        <g transform="matrix(1,0,0,1,0,0.001)">
            <rect x="487.613" y="275.652" width="11.083" height="60.695" style="fill:rgb(35,31,32);"/>
        </g>
        <g transform="matrix(1,0,0,1,516.942,326.972)">
            <path d="M0,-41.943L-9.545,-41.943L-9.545,-51.319L20.632,-51.319L20.632,-41.943L11.083,-41.943L11.083,9.376L0,9.376L0,-41.943Z" style="fill:rgb(35,31,32);fill-rule:nonzero;"/>
        </g>
        <g transform="matrix(1,0,0,1,551.812,326.972)">
            <path d="M0,-41.943L-9.545,-41.943L-9.545,-51.319L20.632,-51.319L20.632,-41.943L11.083,-41.943L11.083,9.376L0,9.376L0,-41.943Z" style="fill:rgb(35,31,32);fill-rule:nonzero;"/>
        </g>
        <g transform="matrix(1,0,0,1,581.572,336.348)">
            <path d="M0,-60.695L25.062,-60.695L25.062,-51.319L11.083,-51.319L11.083,-35.804L21.397,-35.804L21.397,-25.914L11.083,-25.914L11.083,-9.378L25.66,-9.378L25.66,0L0,0L0,-60.695Z" style="fill:rgb(35,31,32);fill-rule:nonzero;"/>
        </g>
        <g transform="matrix(1,0,0,1,629.06,310.606)">
            <path d="M0,-9.209L2.219,-9.209C6.311,-9.209 7.844,-13.3 7.844,-17.648C7.844,-24.212 5.458,-26.086 1.705,-26.086L0,-26.086L0,-9.209ZM-11.083,-34.952L1.367,-34.952C11.936,-34.952 18.927,-30.52 18.927,-17.732C18.927,-12.619 17.394,-5.799 12.445,-2.9L19.011,25.743L7.844,25.743L2.646,-0.343L0,-0.343L0,25.743L-11.083,25.743L-11.083,-34.952Z" style="fill:rgb(35,31,32);fill-rule:nonzero;"/>
        </g>
        <g transform="matrix(1,0,0,1,666.659,293.212)">
            <path d="M0,25.576C0,28.986 0,34.954 4.777,34.954C8.442,34.954 9.721,31.544 9.721,29.072C9.721,18.244 -10.397,15.772 -10.397,-2.215C-10.397,-11.336 -5.454,-18.754 3.924,-18.754C13.896,-18.754 17.732,-11.167 17.991,-0.255L8.099,-0.255C8.099,-3.663 8.099,-9.376 3.669,-9.376C1.024,-9.376 -0.51,-7.159 -0.51,-3.834C-0.51,6.479 19.608,9.975 19.608,27.622C19.608,36.914 14.322,44.33 4.351,44.33C-7.501,44.33 -9.888,33.93 -9.888,25.576L0,25.576Z" style="fill:rgb(35,31,32);fill-rule:nonzero;"/>
        </g>
    </g>
</svg>
